<svg xmlns="http://www.w3.org/2000/svg" xmlns:xlink="http://www.w3.org/1999/xlink" version="1.0" id="fleche-diapo" x="0px" y="0px" width="78.167px" height="84px" viewBox="0 0 78.167 84" xml:space="preserve" enable-background="new 0 0 78.167 84">
  <style type="text/css">
    
	.st0{fill:#FFFFFF;}
	.st1{opacity:0.5;fill-rule:evenodd;clip-rule:evenodd;}

  </style>
  <path id="fond" class="st1" d="M0 0h78.167v84H0V0zM30.168 39.686l13-13c1.227-1.226 3.366-1.226 4.596 0 1.267 1.268 1.267 3.33 0.004 4.59L37.277 42.009l10.487 10.676c0.613 0.615 0.95 1.432 0.95 2.299 0 0.869-0.341 1.685-0.95 2.3 -0.616 0.615-1.432 0.95-2.3 0.95s-1.684-0.339-2.299-0.95l-13-13C28.902 43.016 28.902 40.954 30.168 39.686z"/>
</svg>
