<?xml version="1.0" encoding="utf-8"?>
<!-- Generator: Adobe Illustrator 16.0.4, SVG Export Plug-In . SVG Version: 6.00 Build 0)  -->
<!DOCTYPE svg PUBLIC "-//W3C//DTD SVG 1.1//EN" "http://www.w3.org/Graphics/SVG/1.1/DTD/svg11.dtd">
<svg version="1.1" id="Calque_1" xmlns="http://www.w3.org/2000/svg" xmlns:xlink="http://www.w3.org/1999/xlink" x="0px" y="0px"
	 width="43.5px" height="43.5px" viewBox="0 0 43.5 43.5" enable-background="new 0 0 43.5 43.5" xml:space="preserve">
<path fill="#FFFFFF" d="M19.143,2.895L3.267,18.855c-1.497,1.508-1.49,4.126,0.016,5.627c1.557,1.547,4.081,1.54,5.62-0.009
	L22.01,11.592l13.106,12.806c0.757,0.75,1.757,1.159,2.819,1.156s2.061-0.424,2.811-1.172c0.752-0.756,1.16-1.755,1.157-2.818
	c-0.003-1.063-0.421-2.061-1.172-2.812L24.771,2.877C23.217,1.334,20.691,1.341,19.143,2.895z"/>
<path fill="#FFFFFF" d="M19.143,19.222L3.267,35.182c-1.497,1.508-1.49,4.127,0.016,5.628c1.557,1.547,4.081,1.54,5.62-0.009
	L22.01,27.92l13.106,12.806c0.757,0.75,1.757,1.159,2.819,1.156s2.061-0.424,2.811-1.172c0.752-0.756,1.16-1.755,1.157-2.817
	c-0.003-1.064-0.421-2.061-1.172-2.812l-15.96-15.876C23.217,17.661,20.691,17.668,19.143,19.222z"/>
</svg>
